<?xml version="1.0" encoding="utf-8"?>
<svg xmlns="http://www.w3.org/2000/svg" viewBox="510.4595 204.2344 121.482 85.04" width="121.482px" height="85.04px"><path d="M 0.269 -36.776 L 0.269 -0.33 L 31.832 -18.553 L 0.269 -36.776 Z M 70.623 10.688 C 69.225 15.914 65.109 20.031 59.882 21.428 C 50.408 23.967 12.418 23.967 12.418 23.967 C 12.418 23.967 -25.571 23.967 -35.041 21.428 C -40.271 20.031 -44.391 15.914 -45.781 10.688 C -48.321 1.214 -48.321 -18.553 -48.321 -18.553 C -48.321 -18.553 -48.321 -38.32 -45.781 -47.794 C -44.391 -53.02 -40.271 -57.137 -35.041 -58.534 C -25.571 -61.073 12.418 -61.073 12.418 -61.073 C 12.418 -61.073 50.408 -61.073 59.882 -58.534 C 65.109 -57.137 69.225 -53.02 70.623 -47.794 C 73.161 -38.32 73.161 -18.553 73.161 -18.553 C 73.161 -18.553 73.161 1.214 70.623 10.688" style="fill-opacity: 1; fill: #ECDFCC;" id="object-0" transform="matrix(1.0000000000000002, 0, 0, -1.0000000000000002, 558.7804692279389, 228.20136503986583)"/></svg>